<svg xmlns="http://www.w3.org/2000/svg" viewBox="0 0 64 64" width="50px" height="50px">
  <ellipse cx="32" cy="60.999" opacity=".3" rx="19" ry="3" />
  <path fill="#fd3c4f" d="M32,18.2c2.3,0,4.464,0.568,6.369,1.566c1.817,0.952,4.025,0.692,5.476-0.759 c2.174-2.173,1.656-5.853-1.056-7.305C39.574,9.98,35.903,9,32,9c-8.825,0-16.482,4.977-20.339,12.275l7.592,5.435 C21.33,21.714,26.252,18.2,32,18.2z" />
  <path fill="#ffce29" d="M19.009,36.627C18.494,35.178,18.2,33.626,18.2,32c0-1.875,0.377-3.659,1.053-5.29l-7.592-5.435 C9.968,24.479,9,28.125,9,32c0,3.777,0.927,7.33,2.539,10.474l0.003-0.002c0,0,0,0,0,0L19.009,36.627z" />
  <path fill="#98c900" d="M32,45.8c-5.996,0-11.084-3.832-12.988-9.175l-0.002,0.002c0,0,0,0,0,0l-7.468,5.845 C15.353,49.903,23.074,55,32,55c5.932,0,11.321-2.263,15.398-5.95l-7.155-6.012C37.943,44.763,35.098,45.8,32,45.8z" />
  <polygon fill="#68e5fd" points="19.009,36.627 11.542,42.472 11.542,42.472 19.01,36.628" />
  <path fill="#9c34c2" d="M54.985,31.244c-0.085-2.176-1.841-3.913-4.019-3.904L36.6,27.4c-2.542,0-4.6,2.059-4.6,4.6 s2.058,4.6,4.6,4.6h8.397c-0.918,2.592-2.597,4.818-4.754,6.438l7.155,6.012C52.056,44.841,55,38.771,55,32 C55,31.751,54.995,31.499,54.985,31.244z" />
  <path fill="#fff" d="M32,14c2.574,0,4.668-1.952,4.945-4.452C35.352,9.196,33.7,9,32,9 c-8.825,0-16.482,4.977-20.339,12.275c-0.773,1.463-1.386,3.021-1.833,4.648c0.596,0.236,1.216,0.353,1.83,0.353 c1.794,0,3.527-0.968,4.425-2.665C19.215,17.683,25.314,14,32,14z" opacity=".3" />
  <path d="M54.985,31.244c-0.063-1.612-1.046-2.979-2.435-3.578C51.034,28.526,50,30.134,50,32 c0,5.058-2.17,9.92-5.955,13.341C40.722,48.345,36.444,50,32,50c-2.578,0-4.675,1.958-4.946,4.463C28.647,54.813,30.301,55,32,55 c5.932,0,11.321-2.263,15.398-5.95C52.056,44.841,55,38.771,55,32C55,31.751,54.995,31.499,54.985,31.244z" opacity=".15" />
  <path fill="none" stroke="#fff" stroke-linecap="round" stroke-linejoin="round" stroke-miterlimit="10" stroke-width="3" d="M19.481,17.051c1.15-0.965,2.406-1.793,3.742-2.467s2.753-1.195,4.224-1.548" />
</svg>