<svg xmlns="http://www.w3.org/2000/svg" viewBox="0 0 48 48" width="48px" height="48px" baseProfile="basic">
  <linearGradient id="nQF_6f67QabQmcqibrzAIa" x1="23.813" x2="23.813" y1="6.155" y2="38.248" gradientUnits="userSpaceOnUse">
    <stop offset="0" stop-color="#f0f0f0" />
    <stop offset=".324" stop-color="#ededed" />
    <stop offset=".568" stop-color="#e3e5e6" />
    <stop offset=".786" stop-color="#d3d6d8" />
    <stop offset=".989" stop-color="#bcc2c5" />
    <stop offset="1" stop-color="#bbc1c4" />
  </linearGradient>
  <path fill="url(#nQF_6f67QabQmcqibrzAIa)" d="M39.391,17.033C40.447,8.823,38.466,6.46,37.5,6.25c-3.138-0.684-7.647,2.509-9.451,3.864 c-1.464-0.313-2.984-0.497-4.549-0.497c-2.893,0-5.593,0.584-7.993,1.592c-1.494-0.763-4.96-2.316-7.632-1.841 c-0.591,0.105-3.606,3.234-0.85,9.33c-1.051,1.98-1.65,4.171-1.65,6.479c0,8.525,7.125,13.068,18.625,13.07 c11,0.002,18.25-4.546,18.25-13.07C42.25,22.199,41.186,19.411,39.391,17.033z" />
  <path fill="none" stroke="#64717c" stroke-linecap="round" stroke-miterlimit="10" stroke-width="2" d="M8.625,27.381 c0,0-2.75-0.131-6.875,0.869" />
  <path fill="none" stroke="#64717c" stroke-linecap="round" stroke-miterlimit="10" stroke-width="2" d="M3.875,32.5 c0,0,1.75-1.125,5.125-1.75" />
  <path fill="none" stroke="#64717c" stroke-linecap="round" stroke-miterlimit="10" stroke-width="2" d="M5.75,37.256 c0,0,1.375-1.5,5.625-3.625" />
  <path fill="none" stroke="#64717c" stroke-linecap="round" stroke-miterlimit="10" stroke-width="2" d="M39.375,24.256 c0,0,3.875-1.25,7.25-0.75" />
  <path fill="none" stroke="#64717c" stroke-linecap="round" stroke-miterlimit="10" stroke-width="2" d="M40.5,27.631 c0,0,2.875,0,5.125,0.375" />
  <path fill="none" stroke="#64717c" stroke-linecap="round" stroke-miterlimit="10" stroke-width="2" d="M39,31.131 c0,0,2.875,0.375,5.875,2" />
  <ellipse cx="14.5" cy="28.011" fill="#64717c" rx="1.5" ry="1.989" />
  <ellipse cx="33.5" cy="26.989" fill="#64717c" rx="1.5" ry="1.989" />
  <ellipse cx="24.46" cy="30.999" fill="#f7c13a" rx="2.484" ry="2.007" transform="rotate(-2.987 24.483 31.026)" />
  <linearGradient id="nQF_6f67QabQmcqibrzAIb" x1="27.125" x2="30.375" y1="12.506" y2="12.506" gradientUnits="userSpaceOnUse">
    <stop offset=".016" stop-color="#e52030" />
    <stop offset="1" stop-color="#e52030" />
  </linearGradient>
  <path fill="url(#nQF_6f67QabQmcqibrzAIb)" d="M28.875,14.256c-0.966,0-1.75-0.784-1.75-1.75s0.784-1.75,1.75-1.75 c0.637,0,1.194,0.34,1.5,0.848" />
  <linearGradient id="nQF_6f67QabQmcqibrzAIc" x1="35" x2="37.625" y1="15.751" y2="15.751" gradientUnits="userSpaceOnUse">
    <stop offset=".016" stop-color="#e52030" />
    <stop offset="1" stop-color="#e52030" />
  </linearGradient>
  <path fill="url(#nQF_6f67QabQmcqibrzAIc)" d="M35.937,14.125c0.932,0,1.688,0.728,1.688,1.626c0,0.898-0.5,1.626-1.688,1.626 c-0.245,0-0.727-0.162-0.937-0.252" />
  <path d="M27.135,6c0.074,0,0.115,0.006,0.115,0.006c3.26,0.421,4.482,3.928,4.788,5.034c0.112-0.011,0.221-0.034,0.337-0.034 c1.122,0,2.109,0.537,2.749,1.358c0.759-0.3,2.095-0.745,3.341-0.745c0.763,0,1.493,0.167,2.035,0.637 c1.875,1.625,1.375,4.125,0,6.125c-0.872,1.269-2.105,2.26-3.504,2.26c-0.082,0-0.164-0.003-0.246-0.01 c-1.327-0.111-2.651-0.91-3.545-2.735c-0.267,0.065-0.542,0.11-0.83,0.11c-1.406,0-2.61-0.834-3.167-2.03 c-1.569,0.643-2.763,0.8-3.556,0.8c-0.761,0-1.153-0.145-1.153-0.145c-3-1.375-1.5-6-1.5-6C24.63,6.283,26.639,6,27.135,6 M27.135,5c-0.929,0-3.284,0.515-5.071,5.28c-0.087,0.266-1.746,5.534,2.02,7.26l0.034,0.016l0.036,0.013 c0.093,0.035,0.605,0.207,1.5,0.207c0.966,0,2.016-0.192,3.132-0.573c0.84,1.117,2.169,1.803,3.59,1.803 c0.097,0,0.195-0.004,0.294-0.011c0.969,1.57,2.367,2.497,3.998,2.633c0.111,0.009,0.22,0.014,0.33,0.014 c1.596,0,3.133-0.957,4.328-2.694c1.94-2.822,1.875-5.675-0.169-7.447c-0.675-0.585-1.58-0.881-2.69-0.881 c-1.075,0-2.18,0.277-3.061,0.576c-0.731-0.676-1.654-1.088-2.644-1.173c-0.596-1.642-2.109-4.584-5.379-5.008c0,0,0.001,0,0.001,0 C27.387,5.015,27.294,5,27.135,5L27.135,5z" opacity=".05" />
  <path d="M27.135,6c0.074,0,0.115,0.006,0.115,0.006c3.26,0.421,4.482,3.928,4.788,5.034c0.112-0.011,0.221-0.034,0.337-0.034 c1.122,0,2.109,0.537,2.749,1.358c0.759-0.3,2.095-0.745,3.341-0.745c0.763,0,1.493,0.167,2.035,0.637 c1.875,1.625,1.375,4.125,0,6.125c-0.872,1.269-2.105,2.26-3.504,2.26c-0.082,0-0.164-0.003-0.246-0.01 c-1.327-0.111-2.651-0.91-3.545-2.735c-0.267,0.065-0.542,0.11-0.83,0.11c-1.406,0-2.61-0.834-3.167-2.03 c-1.569,0.643-2.763,0.8-3.556,0.8c-0.761,0-1.153-0.145-1.153-0.145c-3-1.375-1.5-6-1.5-6C24.63,6.283,26.639,6,27.135,6 M27.135,5.5c-0.644,0-2.879,0.357-4.603,4.956c-0.074,0.227-1.606,5.087,1.76,6.63c0.084,0.032,0.535,0.19,1.361,0.19 c0.711,0,1.843-0.122,3.326-0.673c0.723,1.17,2.01,1.904,3.396,1.904c0.18,0,0.366-0.015,0.56-0.046 c0.889,1.596,2.217,2.539,3.773,2.669c0.097,0.008,0.193,0.012,0.288,0.012c1.427,0,2.817-0.88,3.916-2.477 c1.784-2.595,1.751-5.195-0.085-6.786c-0.581-0.504-1.376-0.759-2.362-0.759c-1.131,0-2.31,0.33-3.19,0.652 c-0.752-0.803-1.78-1.259-2.876-1.266c-0.472-1.448-1.859-4.579-5.083-4.996c0,0,0,0,0,0C27.318,5.511,27.251,5.5,27.135,5.5 L27.135,5.5z" opacity=".07" />
  <linearGradient id="nQF_6f67QabQmcqibrzAId" x1="22.624" x2="32.135" y1="11.402" y2="11.402" gradientUnits="userSpaceOnUse">
    <stop offset="0" stop-color="#f44f5a" />
    <stop offset=".443" stop-color="#ee3d4a" />
    <stop offset="1" stop-color="#e52030" />
  </linearGradient>
  <path fill="url(#nQF_6f67QabQmcqibrzAId)" d="M32.125,11.381c0.058-0.128-0.158-0.59-0.197-0.71c-0.186-0.574-0.424-1.133-0.715-1.662 C30.435,7.598,29.21,6.381,27.58,6.06c-1.784-0.351-3.108,1.337-3.838,2.728c-0.724,1.381-1.164,2.969-1.114,4.536 c0.045,1.401,0.77,3.174,2.328,3.407c1.688,0.253,3.486-0.365,4.985-1.076c0.103-0.049,0.206-0.099,0.309-0.15 C30.25,15.506,32.124,11.384,32.125,11.381z" />
  <linearGradient id="nQF_6f67QabQmcqibrzAIe" x1="32.875" x2="41.726" y1="16.131" y2="16.131" gradientUnits="userSpaceOnUse">
    <stop offset="0" stop-color="#f44f5a" />
    <stop offset=".443" stop-color="#ee3d4a" />
    <stop offset="1" stop-color="#e52030" />
  </linearGradient>
  <path fill="url(#nQF_6f67QabQmcqibrzAIe)" d="M34.5,12.631c0,0,4.125-2,6-0.375s1.375,4.125,0,6.125c-0.923,1.343-2.25,2.375-3.75,2.25 s-3-1.125-3.875-3.5L34.5,12.631z" />
  <linearGradient id="nQF_6f67QabQmcqibrzAIf" x1="28.875" x2="35.875" y1="14.506" y2="14.506" gradientUnits="userSpaceOnUse">
    <stop offset="0" stop-color="#f44f5a" />
    <stop offset=".443" stop-color="#ee3d4a" />
    <stop offset="1" stop-color="#e52030" />
  </linearGradient>
  <circle cx="32.375" cy="14.506" r="3.5" fill="url(#nQF_6f67QabQmcqibrzAIf)" />
</svg>